<svg xmlns:dc="http://purl.org/dc/elements/1.1/" xmlns:cc="http://creativecommons.org/ns#" xmlns:rdf="http://www.w3.org/1999/02/22-rdf-syntax-ns#" xmlns:svg="http://www.w3.org/2000/svg" xmlns="http://www.w3.org/2000/svg" version="1.1" id="svg2" viewBox="0 0 181.4961 248.64884" height="248.64883" width="181.49609">
  <metadata id="metadata118">
    <rdf:RDF>
      <cc:Work rdf:about="">
        <dc:format>image/svg+xml</dc:format>
        <dc:type rdf:resource="http://purl.org/dc/dcmitype/StillImage"/>
        <dc:title/>
      </cc:Work>
    </rdf:RDF>
  </metadata>
  <defs id="defs116"/>
  <g transform="translate(0,51.387157)" id="g4246">
    <path style="fill:none;stroke:#ffffff;stroke-linecap:round" d="m 0.5,108.39767 35.299217,0 0,-35.299217 -35.299217,0 z m 36.299217,0 35.299217,0 0,-35.299217 -35.299217,0 z m 36.299214,0 35.299219,0 0,-35.299217 -35.299219,0 z M 0.5,144.69686 l 35.299217,0 0,-35.29922 -35.299217,0 z m 36.299217,0 35.299217,0 0,-35.29922 -35.299217,0 z m 36.299221,0 35.299222,0 0,-35.29922 -35.299222,0 z M 0.5,35.79922 l 35.299217,0 0,-35.299217 -35.299217,0 z m 36.299217,0 35.299217,0 0,-35.299217 -35.299217,0 z m 36.299214,0 35.299219,0 0,-35.299217 -35.299219,0 z M 0.5,72.09847 l 35.299217,0 0,-35.299217 -35.299217,0 z m 36.299217,0 35.299217,0 0,-35.299217 -35.299217,0 z m 36.299221,0 35.299222,0 0,-35.299217 -35.299222,0 z M 0.5,180.99611 l 35.299217,0 0,-35.29922 -35.299217,0 z m 36.299217,0 35.299217,0 0,-35.29922 -35.299217,0 z m 36.299221,0 35.299222,0 0,-35.29922 -35.299222,0 z" id="path4"/>
    <text y="759.58582" x="25.286367" style="font-weight:400;font-size:20.21964455px;line-height:125%;font-family:courier;letter-spacing:0;word-spacing:0;fill:#ffffff" font-weight="400" font-size="20.21964455" letter-spacing="0" word-spacing="0" transform="translate(-13.746647,-734.06608)" id="text6">
      <tspan y="759.58582" x="25.286367" id="tspan8">1</tspan>
    </text>
    <text y="796.01831" x="25.735582" style="font-weight:400;font-size:20.21964455px;line-height:125%;font-family:courier;letter-spacing:0;word-spacing:0;fill:#ffffff" font-weight="400" font-size="20.21964455" letter-spacing="0" word-spacing="0" transform="translate(-13.746647,-734.06608)" id="text10">
      <tspan y="796.01831" x="25.735582" id="tspan12">2</tspan>
    </text>
    <text y="832.17438" x="25.503571" style="font-weight:400;font-size:20.21964455px;line-height:125%;font-family:courier;letter-spacing:0;word-spacing:0;fill:#ffffff" font-weight="400" font-size="20.21964455" letter-spacing="0" word-spacing="0" transform="translate(-13.746647,-734.06608)" id="text14">
      <tspan y="832.17438" x="25.503571" id="tspan16">3</tspan>
    </text>
    <text y="868.48346" x="25.538126" style="font-weight:400;font-size:20.21964455px;line-height:125%;font-family:courier;letter-spacing:0;word-spacing:0;fill:#ffffff" font-weight="400" font-size="20.21964455" letter-spacing="0" word-spacing="0" transform="translate(-13.746647,-734.06608)" id="text18">
      <tspan y="868.48346" x="25.538126" id="tspan20">4</tspan>
    </text>
    <text y="904.63953" x="25.567743" style="font-weight:400;font-size:20.21964455px;line-height:125%;font-family:courier;letter-spacing:0;word-spacing:0;fill:#ffffff" font-weight="400" font-size="20.21964455" letter-spacing="0" word-spacing="0" transform="translate(-13.746647,-734.06608)" id="text22">
      <tspan y="904.63953" x="25.567743" id="tspan24">5</tspan>
    </text>
    <text y="759.57593" x="61.694187" style="font-weight:400;font-size:20.21964455px;line-height:125%;font-family:courier;letter-spacing:0;word-spacing:0;fill:#ffffff" font-weight="400" font-size="20.21964455" letter-spacing="0" word-spacing="0" transform="translate(-13.746647,-734.06608)" id="text26">
      <tspan y="759.57593" x="61.694187" id="tspan28">6</tspan>
    </text>
    <text y="795.88507" x="61.797852" style="font-weight:400;font-size:20.21964455px;line-height:125%;font-family:courier;letter-spacing:0;word-spacing:0;fill:#ffffff" font-weight="400" font-size="20.21964455" letter-spacing="0" word-spacing="0" transform="translate(-13.746647,-734.06608)" id="text30">
      <tspan y="795.88507" x="61.797852" id="tspan32">7</tspan>
    </text>
    <text y="832.17438" x="61.76823" style="font-weight:400;font-size:20.21964455px;line-height:125%;font-family:courier;letter-spacing:0;word-spacing:0;fill:#ffffff" font-weight="400" font-size="20.21964455" letter-spacing="0" word-spacing="0" transform="translate(-13.746647,-734.06608)" id="text34">
      <tspan y="832.17438" x="61.76823" id="tspan36">8</tspan>
    </text>
    <text y="868.47357" x="61.837341" style="font-weight:400;font-size:20.21964455px;line-height:125%;font-family:courier;letter-spacing:0;word-spacing:0;fill:#ffffff" font-weight="400" font-size="20.21964455" letter-spacing="0" word-spacing="0" transform="translate(-13.746647,-734.06608)" id="text38">
      <tspan y="868.47357" x="61.837341" id="tspan40">9</tspan>
    </text>
    <text y="904.77283" x="54.886841" style="font-weight:400;font-size:20.21964455px;line-height:125%;font-family:courier;letter-spacing:0;word-spacing:0;fill:#ffffff" font-weight="400" font-size="20.21964455" letter-spacing="0" word-spacing="0" transform="translate(-13.746647,-734.06608)" id="text42">
      <tspan y="904.77283" x="54.886841" id="tspan44">10</tspan>
    </text>
    <text y="759.58582" x="91.447685" style="font-weight:400;font-size:20.21964455px;line-height:125%;font-family:courier;letter-spacing:0;word-spacing:0;fill:#ffffff" font-weight="400" font-size="20.21964455" letter-spacing="0" word-spacing="0" transform="translate(-13.746647,-734.06608)" id="text46">
      <tspan y="759.58582" x="91.447685" id="tspan48">11</tspan>
    </text>
    <text y="796.01831" x="91.526672" style="font-weight:400;font-size:20.21964455px;line-height:125%;font-family:courier;letter-spacing:0;word-spacing:0;fill:#ffffff" font-weight="400" font-size="20.21964455" letter-spacing="0" word-spacing="0" transform="translate(-13.746647,-734.06608)" id="text50">
      <tspan y="796.01831" x="91.526672" id="tspan52">12</tspan>
    </text>
    <text y="832.17438" x="91.324272" style="font-weight:400;font-size:20.21964455px;line-height:125%;font-family:courier;letter-spacing:0;word-spacing:0;fill:#ffffff" font-weight="400" font-size="20.21964455" letter-spacing="0" word-spacing="0" transform="translate(-13.746647,-734.06608)" id="text54">
      <tspan y="832.17438" x="91.324272" id="tspan56">13</tspan>
    </text>
    <text y="868.48346" x="91.082397" style="font-weight:400;font-size:20.21964455px;line-height:125%;font-family:courier;letter-spacing:0;word-spacing:0;fill:#ffffff" font-weight="400" font-size="20.21964455" letter-spacing="0" word-spacing="0" transform="translate(-13.746647,-734.06608)" id="text58">
      <tspan y="868.48346" x="91.082397" id="tspan60">14</tspan>
    </text>
    <text y="904.63953" x="91.398331" style="font-weight:400;font-size:20.21964455px;line-height:125%;font-family:courier;letter-spacing:0;word-spacing:0;fill:#ffffff" font-weight="400" font-size="20.21964455" letter-spacing="0" word-spacing="0" transform="translate(-13.746647,-734.06608)" id="text62">
      <tspan y="904.63953" x="91.398331" id="tspan64">15</tspan>
    </text>
    <g id="g66">
      <path style="fill:none;stroke:#ffffff;stroke-linecap:round" d="m 145.69688,108.39766 35.29921,0 0,-35.299213 -35.29921,0 z m 0,36.29919 35.29921,0 0,-35.29921 -35.29921,0 z m 0,-108.897636 35.29921,0 0,-35.299217 -35.29921,0 z m 0,36.29926 35.29921,0 0,-35.299217 -35.29921,0 z m 0,108.897636 35.29921,0 0,-35.29921 -35.29921,0 z" id="path68"/>
      <text y="720.02423" x="140.51003" style="font-weight:400;font-size:20.21964455px;line-height:125%;font-family:courier;letter-spacing:0;word-spacing:0;fill:#ffffff" font-weight="400" font-size="20.21964455" letter-spacing="0" word-spacing="0" transform="translate(16.226566,-694.5045)" id="text70">
        <tspan y="720.02423" x="140.51003" id="tspan72">1'</tspan>
      </text>
      <text y="756.45673" x="140.95924" style="font-weight:400;font-size:20.21964455px;line-height:125%;font-family:courier;letter-spacing:0;word-spacing:0;fill:#ffffff" font-weight="400" font-size="20.21964455" letter-spacing="0" word-spacing="0" transform="translate(16.226566,-694.5045)" id="text74">
        <tspan y="756.45673" x="140.95924" id="tspan76">2'</tspan>
      </text>
      <text y="792.61279" x="140.72723" style="font-weight:400;font-size:20.21964455px;line-height:125%;font-family:courier;letter-spacing:0;word-spacing:0;fill:#ffffff" font-weight="400" font-size="20.21964455" letter-spacing="0" word-spacing="0" transform="translate(16.226566,-694.5045)" id="text78">
        <tspan y="792.61279" x="140.72723" id="tspan80">3'</tspan>
      </text>
      <text y="828.92188" x="140.7618" style="font-weight:400;font-size:20.21964455px;line-height:125%;font-family:courier;letter-spacing:0;word-spacing:0;fill:#ffffff" font-weight="400" font-size="20.21964455" letter-spacing="0" word-spacing="0" transform="translate(16.226566,-694.5045)" id="text82">
        <tspan y="828.92188" x="140.7618" id="tspan84">4'</tspan>
      </text>
      <text y="865.07794" x="140.79141" style="font-weight:400;font-size:20.21964455px;line-height:125%;font-family:courier;letter-spacing:0;word-spacing:0;fill:#ffffff" font-weight="400" font-size="20.21964455" letter-spacing="0" word-spacing="0" transform="translate(16.226566,-694.5045)" id="text86">
        <tspan y="865.07794" x="140.79141" id="tspan88">5'</tspan>
      </text>
    </g>
    <g id="g90">
      <path style="fill:none;stroke:#ffffff;stroke-linecap:round" d="m 109.39765,108.39766 35.29922,0 0,-35.299213 -35.29922,0 z m 0,36.29919 35.29922,0 0,-35.29921 -35.29922,0 z m 0,-108.897636 35.29922,0 0,-35.299217 -35.29922,0 z m 0,36.29926 35.29922,0 0,-35.299217 -35.29922,0 z m 0,108.897636 35.29922,0 0,-35.29921 -35.29922,0 z" id="path92"/>
      <text y="720.01434" x="176.91785" style="font-weight:400;font-size:20.21964455px;line-height:125%;font-family:courier;letter-spacing:0;word-spacing:0;fill:#ffffff" font-weight="400" font-size="20.21964455" letter-spacing="0" word-spacing="0" transform="translate(-56.371876,-694.5045)" id="text94">
        <tspan y="720.01434" x="176.91785" id="tspan96">6'</tspan>
      </text>
      <text y="756.32349" x="177.02151" style="font-weight:400;font-size:20.21964455px;line-height:125%;font-family:courier;letter-spacing:0;word-spacing:0;fill:#ffffff" font-weight="400" font-size="20.21964455" letter-spacing="0" word-spacing="0" transform="translate(-56.371876,-694.5045)" id="text98">
        <tspan y="756.32349" x="177.02151" id="tspan100">7'</tspan>
      </text>
      <text y="792.61279" x="176.9919" style="font-weight:400;font-size:20.21964455px;line-height:125%;font-family:courier;letter-spacing:0;word-spacing:0;fill:#ffffff" font-weight="400" font-size="20.21964455" letter-spacing="0" word-spacing="0" transform="translate(-56.371876,-694.5045)" id="text102">
        <tspan y="792.61279" x="176.9919" id="tspan104">8'</tspan>
      </text>
      <text y="828.91199" x="177.061" style="font-weight:400;font-size:20.21964455px;line-height:125%;font-family:courier;letter-spacing:0;word-spacing:0;fill:#ffffff" font-weight="400" font-size="20.21964455" letter-spacing="0" word-spacing="0" transform="translate(-56.371876,-694.5045)" id="text106">
        <tspan y="828.91199" x="177.061" id="tspan108">9'</tspan>
      </text>
      <text y="865.21124" x="170.1105" style="font-weight:400;font-size:20.21964455px;line-height:125%;font-family:courier;letter-spacing:0;word-spacing:0;fill:#ffffff" font-weight="400" font-size="20.21964455" letter-spacing="0" word-spacing="0" transform="translate(-56.371876,-694.5045)" id="text110">
        <tspan y="865.21124" x="170.1105" id="tspan112">10'</tspan>
      </text>
    </g>
  </g>
  <path id="path4303" d="m 90.748046,35.621599 0,213.027231" style="fill:#ffffff;fill-opacity:1;fill-rule:evenodd;stroke:#ffffff;stroke-width:1;stroke-linecap:butt;stroke-linejoin:miter;stroke-miterlimit:4;stroke-dasharray:4, 4;stroke-dashoffset:0;stroke-opacity:1"/>
  <text id="text4305" y="11.396484" x="91.000732" style="font-style:normal;font-weight:normal;font-size:40px;line-height:125%;font-family:courier;letter-spacing:0px;word-spacing:0px;fill:#ffffff;fill-opacity:1;stroke:none;stroke-width:1px;stroke-linecap:butt;stroke-linejoin:miter;stroke-opacity:1" xml:space="preserve"><tspan style="font-style:italic;font-variant:normal;font-weight:normal;font-stretch:normal;font-size:15px;font-family:courier;-inkscape-font-specification:'courier Italic';text-align:center;text-anchor:middle;fill:#ffffff;fill-opacity:1" y="11.396484" x="91.000732" id="tspan4307">axis of</tspan><tspan id="tspan4328" style="font-style:italic;font-variant:normal;font-weight:normal;font-stretch:normal;font-size:15px;font-family:courier;-inkscape-font-specification:'courier Italic';text-align:center;text-anchor:middle;fill:#ffffff;fill-opacity:1" y="30.146484" x="91.000732">reflection</tspan></text>
</svg>